# xmcd CD database file
#
# Track frame offsets:
#	150
#	13800
#	41862
#	61812
#	97730
#	116852
#	139100
#	163875
#	188407
#	209592
#	240235
#
# Disc length: 3593 seconds
#
# Revision: 0
# Processed by: cddbd v1.5.1PL0 Copyright (c) Steve Scherf et al.
# Submitted via: CDex 1.51
#
DISCID=930e070b
DTITLE=John Hicks - Hicks Time-Solo Piano
DYEAR=1900
DGENRE=Jazz
TTITLE0=Naomi'S Love Song
TTITLE1=Peanut Butter
TTITLE2=Hick'S Time
TTITLE3=April Eyes
TTITLE4=Redd'S Blues
TTITLE5=Jest A Little
TTITLE6=Two Heartbeats
TTITLE7=Heart To Heart
TTITLE8=Steadfast
TTITLE9=After The Morning
TTITLE10=Bonus Track
EXTD=
EXTT0=
EXTT1=
EXTT2=
EXTT3=
EXTT4=
EXTT5=
EXTT6=
EXTT7=
EXTT8=
EXTT9=
EXTT10=
PLAYORDER=
